<svg width="30" height="30" viewBox="0 0 30 30" fill="none" xmlns="http://www.w3.org/2000/svg">
    <path fill-rule="evenodd" clip-rule="evenodd"
        d="M25.736 4.59107C22.9316 1.67502 19.0961 0 14.9986 0C10.9025 0 7.06706 1.67502 4.26265 4.59107C3.98713 4.87756 3.99265 5.33646 4.27497 5.61604C4.5573 5.89563 5.00953 5.89003 5.28505 5.60354C7.8233 2.96423 11.2914 1.44964 14.9986 1.44964L15.4109 1.45585C18.9628 1.56337 22.2694 3.06199 24.7136 5.60354C24.9891 5.89003 25.4414 5.89563 25.7237 5.61604C26.006 5.33646 26.0115 4.87756 25.736 4.59107ZM25.7142 15.2212C25.7142 9.21657 20.9173 4.34889 14.9999 4.34889C9.08259 4.34889 4.28564 9.21657 4.28564 15.2212C4.28564 21.2258 9.08259 26.0935 14.9999 26.0935C20.9173 26.0935 25.7142 21.2258 25.7142 15.2212ZM0.575625 11.0314C0.684007 10.6465 1.07936 10.4236 1.45867 10.5336C1.83798 10.6436 2.05761 11.0448 1.94922 11.4297C1.60507 12.6519 1.42857 13.9242 1.42857 15.2212C1.42857 21.5164 5.62692 26.9649 11.5414 28.5417C11.9229 28.6434 12.151 29.0398 12.0507 29.4269C11.9505 29.8141 11.5599 30.0455 11.1784 29.9438C4.63981 28.2006 0 22.1792 0 15.2212C0 13.7892 0.19509 12.3828 0.575625 11.0314ZM28.5587 10.5855C28.9384 10.477 29.3329 10.7014 29.4399 11.0867C29.8103 12.4213 30.0001 13.8088 30.0001 15.2212C30.0001 22.2288 25.2945 28.2817 18.6922 29.9777C18.3098 30.0759 17.9213 29.841 17.8245 29.4529C17.7277 29.0649 17.9592 28.6706 18.3417 28.5724C24.3136 27.0383 28.5715 21.5613 28.5715 15.2212C28.5715 13.942 28.3998 12.6867 28.0648 11.4797C27.9579 11.0944 28.179 10.694 28.5587 10.5855ZM15.0001 5.79861C9.87171 5.79861 5.71436 10.0173 5.71436 15.2213C5.71436 20.4252 9.87171 24.6439 15.0001 24.6439C20.1284 24.6439 24.2858 20.4252 24.2858 15.2213C24.2858 10.0173 20.1284 5.79861 15.0001 5.79861Z"
        fill="#57565C" />
</svg>